<?xml version="1.0" encoding="UTF-8" standalone="no"?>
<!-- Created with Inkscape (http://www.inkscape.org/) -->

<svg
   xmlns:dc="http://purl.org/dc/elements/1.1/"
   xmlns:cc="http://creativecommons.org/ns#"
   xmlns:rdf="http://www.w3.org/1999/02/22-rdf-syntax-ns#"
   xmlns:svg="http://www.w3.org/2000/svg"
   xmlns="http://www.w3.org/2000/svg"
   xmlns:sodipodi="http://sodipodi.sourceforge.net/DTD/sodipodi-0.dtd"
   xmlns:inkscape="http://www.inkscape.org/namespaces/inkscape"
   width="120.56801mm"
   height="100.1548mm"
   viewBox="0 0 427.20948 354.87921"
   id="svg3856"
   version="1.1"
   inkscape:version="0.91 r13725"
   sodipodi:docname="drawing.svg">
  <defs
     id="defs3858">
    <clipPath
       clipPathUnits="userSpaceOnUse"
       id="clipPath78">
      <path
         style="clip-rule:evenodd"
         d="M 1.457e-6,2.4414e-4 960,2.4414e-4 960,540.00024 1.457e-6,540.00024 l 0,-539.99999586 z"
         id="path80"
         inkscape:connector-curvature="0" />
    </clipPath>
    <clipPath
       clipPathUnits="userSpaceOnUse"
       id="clipPath88">
      <path
         d="m 0,0 142.33,0 0,147.12 L 0,147.12 0,0 Z"
         id="path90"
         inkscape:connector-curvature="0" />
    </clipPath>
    <clipPath
       clipPathUnits="userSpaceOnUse"
       id="clipPath172">
      <path
         style="clip-rule:evenodd"
         d="M 3.34e-6,1.8311e-4 960,1.8311e-4 960,540.00018 3.34e-6,540.00018 l 0,-539.99999689 z"
         id="path174"
         inkscape:connector-curvature="0" />
    </clipPath>
    <clipPath
       clipPathUnits="userSpaceOnUse"
       id="clipPath182">
      <path
         d="m 0,0 142.33,0 0,180.95 L 0,180.95 0,0 Z"
         id="path184"
         inkscape:connector-curvature="0" />
    </clipPath>
    <clipPath
       clipPathUnits="userSpaceOnUse"
       id="clipPath274">
      <path
         style="clip-rule:evenodd"
         d="m 1.1476e-5,2.4414e-4 959.999998524,0 0,539.99999586 -959.999998524,0 0,-539.99999586 z"
         id="path276"
         inkscape:connector-curvature="0" />
    </clipPath>
    <clipPath
       clipPathUnits="userSpaceOnUse"
       id="clipPath284">
      <path
         d="m 0,0 150.6,0 0,168 L 0,168 0,0 Z"
         id="path286"
         inkscape:connector-curvature="0" />
    </clipPath>
    <clipPath
       clipPathUnits="userSpaceOnUse"
       id="clipPath374">
      <path
         style="clip-rule:evenodd"
         d="m 9.872e-6,2.4414e-4 960.000000128,0 0,539.99999586 -960.000000128,0 0,-539.99999586 z"
         id="path376"
         inkscape:connector-curvature="0" />
    </clipPath>
    <clipPath
       clipPathUnits="userSpaceOnUse"
       id="clipPath384">
      <path
         d="m 0,0 198.59,0 0,168.11 L 0,168.11 0,0 Z"
         id="path386"
         inkscape:connector-curvature="0" />
    </clipPath>
    <clipPath
       clipPathUnits="userSpaceOnUse"
       id="clipPath364">
      <path
         style="clip-rule:evenodd"
         d="M -1.601e-6,540 960,540 960,1.2207e-4 -5.3307e-5,6.1035e-5"
         id="path366"
         inkscape:connector-curvature="0" />
    </clipPath>
  </defs>
  <sodipodi:namedview
     id="base"
     pagecolor="#ffffff"
     bordercolor="#666666"
     borderopacity="1.0"
     inkscape:pageopacity="0.0"
     inkscape:pageshadow="2"
     inkscape:zoom="0.35"
     inkscape:cx="-348.42976"
     inkscape:cy="438.41153"
     inkscape:document-units="px"
     inkscape:current-layer="layer1"
     showgrid="false"
     inkscape:snap-object-midpoints="false"
     inkscape:window-width="1280"
     inkscape:window-height="657"
     inkscape:window-x="-8"
     inkscape:window-y="-8"
     inkscape:window-maximized="1"
     fit-margin-top="0"
     fit-margin-left="0"
     fit-margin-right="0"
     fit-margin-bottom="0" />
  <metadata
     id="metadata3861">
    <rdf:RDF>
      <cc:Work
         rdf:about="">
        <dc:format>image/svg+xml</dc:format>
        <dc:type
           rdf:resource="http://purl.org/dc/dcmitype/StillImage" />
        <dc:title></dc:title>
      </cc:Work>
    </rdf:RDF>
  </metadata>
  <g
     inkscape:label="Layer 1"
     inkscape:groupmode="layer"
     id="layer1"
     transform="translate(-723.42977,-615.89454)">
    <g
       id="g360"
       transform="matrix(2.4837598,0,0,-2.4837598,-690.8276,1896.7814)">
      <g
         id="g362"
         clip-path="url(#clipPath364)">
        <path
           d="m 598.97,432.09 19.25,6.32 11.92,-36.27 -19.25,-6.33 -11.92,36.28 z"
           style="fill:#ffbdbd;fill-opacity:1;fill-rule:evenodd;stroke:none"
           id="path368"
           inkscape:connector-curvature="0" />
      </g>
    </g>
    <g
       id="g370"
       transform="matrix(2.4837598,0,0,-2.4837598,-690.8276,1896.7814)">
      <g
         id="g372"
         clip-path="url(#clipPath374)">
        <g
           id="g378"
           transform="matrix(2.4667,0,0,2.0883,566.28,370.8)">
          <g
             id="g380"
             transform="scale(0.36257,0.4283)">
            <g
               id="g382"
               clip-path="url(#clipPath384)">
              <path
                 d="m 88.754,64.078 c 0,2.076 0.575,3.701 1.723,4.876 1.149,1.175 2.631,1.762 4.447,1.763 1.19,-0.001 2.262,-0.277 3.217,-0.828 0.955,-0.552 1.683,-1.322 2.189,-2.309 0.5,-0.987 0.75,-2.106 0.75,-3.357 0,-1.269 -0.27,-2.404 -0.79,-3.405 -0.531,-1.002 -1.279,-1.759 -2.245,-2.274 -0.967,-0.515 -2.011,-0.772 -3.129,-0.772 -1.213,0 -2.297,0.284 -3.253,0.853 -0.954,0.568 -1.678,1.345 -2.17,2.329 -0.492,0.984 -0.739,2.025 -0.739,3.124 z m 1.758,-0.025 c 0,-1.509 0.418,-2.696 1.253,-3.564 0.835,-0.867 1.882,-1.301 3.141,-1.3 1.284,-10e-4 2.34,0.437 3.169,1.313 0.829,0.876 1.244,2.119 1.244,3.73 0,1.017 -0.177,1.906 -0.532,2.666 -0.354,0.759 -0.873,1.348 -1.556,1.766 -0.682,0.418 -1.448,0.627 -2.298,0.628 -1.207,-0.001 -2.245,-0.403 -3.115,-1.208 -0.871,-0.805 -1.306,-2.149 -1.306,-4.031 z"
                 style="fill:#000000;fill-opacity:1;fill-rule:evenodd;stroke:none"
                 id="path388"
                 inkscape:connector-curvature="0" />
              <path
                 d="m 57.777,37.743 28.35,0"
                 style="fill:none;stroke:#000000;stroke-width:0.95999998;stroke-linecap:round;stroke-linejoin:miter;stroke-miterlimit:10;stroke-dasharray:none;stroke-opacity:1"
                 id="path390"
                 inkscape:connector-curvature="0" />
              <path
                 d="m 86.127,37.743 5.874,18.082"
                 style="fill:none;stroke:#000000;stroke-width:0.95999998;stroke-linecap:round;stroke-linejoin:miter;stroke-miterlimit:10;stroke-dasharray:none;stroke-opacity:1"
                 id="path392"
                 inkscape:connector-curvature="0" />
              <path
                 d="M 88.406,69.415 71.952,81.37"
                 style="fill:none;stroke:#000000;stroke-width:0.95999998;stroke-linecap:round;stroke-linejoin:miter;stroke-miterlimit:10;stroke-dasharray:none;stroke-opacity:1"
                 id="path394"
                 inkscape:connector-curvature="0" />
              <path
                 d="M 71.952,81.37 49.016,64.706"
                 style="fill:none;stroke:#000000;stroke-width:0.95999998;stroke-linecap:round;stroke-linejoin:miter;stroke-miterlimit:10;stroke-dasharray:none;stroke-opacity:1"
                 id="path396"
                 inkscape:connector-curvature="0" />
              <path
                 d="M 49.016,64.706 57.777,37.743"
                 style="fill:none;stroke:#000000;stroke-width:0.95999998;stroke-linecap:round;stroke-linejoin:miter;stroke-miterlimit:10;stroke-dasharray:none;stroke-opacity:1"
                 id="path398"
                 inkscape:connector-curvature="0" />
              <path
                 d="m 90.97,123.47 c 0,2.08 0.574,3.71 1.723,4.88 1.148,1.17 2.63,1.76 4.447,1.76 1.19,0 2.262,-0.27 3.22,-0.83 0.95,-0.55 1.68,-1.32 2.18,-2.3 0.5,-0.99 0.75,-2.11 0.75,-3.36 0,-1.27 -0.26,-2.41 -0.79,-3.41 -0.53,-1 -1.27,-1.76 -2.24,-2.27 -0.967,-0.52 -2.01,-0.77 -3.129,-0.77 -1.212,0 -2.297,0.28 -3.252,0.85 -0.954,0.57 -1.678,1.35 -2.17,2.33 -0.493,0.98 -0.739,2.03 -0.739,3.12 z m 1.758,-0.02 c 0,-1.51 0.417,-2.7 1.253,-3.56 0.835,-0.87 1.882,-1.31 3.141,-1.31 1.284,0 2.34,0.44 3.168,1.32 0.83,0.87 1.24,2.12 1.24,3.73 0,1.02 -0.17,1.9 -0.53,2.66 -0.35,0.76 -0.87,1.35 -1.553,1.77 -0.683,0.42 -1.448,0.63 -2.298,0.63 -1.207,0 -2.245,-0.41 -3.116,-1.21 -0.87,-0.81 -1.305,-2.15 -1.305,-4.03 z"
                 style="fill:#000000;fill-opacity:1;fill-rule:evenodd;stroke:none"
                 id="path400"
                 inkscape:connector-curvature="0" />
              <path
                 d="m 92.488,145.73 0,12.51 4.861,0 c 0.855,0 1.509,-0.04 1.96,-0.12 0.633,-0.1 1.161,-0.3 1.591,-0.58 0.43,-0.29 0.77,-0.69 1.03,-1.21 0.26,-0.52 0.39,-1.09 0.39,-1.71 0,-1.06 -0.34,-1.96 -1.04,-2.7 -0.7,-0.74 -1.959,-1.1 -3.782,-1.1 l -3.304,0 0,-5.09 -1.706,0 z m 1.706,6.56 3.33,0 c 1.102,0 1.885,0.2 2.348,0.6 0.458,0.4 0.698,0.96 0.698,1.68 0,0.52 -0.14,0.97 -0.41,1.35 -0.275,0.37 -0.634,0.61 -1.08,0.73 -0.287,0.08 -0.817,0.11 -1.59,0.11 l -3.296,0 0,-4.47 z m 9.786,-0.47 c 0,2.08 0.57,3.71 1.72,4.88 1.15,1.17 2.63,1.76 4.45,1.76 1.19,0 2.26,-0.27 3.21,-0.83 0.96,-0.55 1.69,-1.32 2.19,-2.3 0.5,-0.99 0.75,-2.11 0.75,-3.36 0,-1.27 -0.27,-2.41 -0.79,-3.41 -0.53,-1 -1.28,-1.76 -2.24,-2.27 -0.97,-0.52 -2.01,-0.77 -3.13,-0.77 -1.22,0 -2.3,0.28 -3.25,0.85 -0.96,0.57 -1.68,1.35 -2.18,2.33 -0.49,0.98 -0.73,2.03 -0.73,3.12 z m 1.75,-0.02 c 0,-1.51 0.42,-2.7 1.26,-3.56 0.83,-0.87 1.88,-1.31 3.14,-1.31 1.28,0 2.34,0.44 3.17,1.32 0.83,0.87 1.24,2.12 1.24,3.73 0,1.02 -0.18,1.9 -0.53,2.66 -0.36,0.76 -0.87,1.35 -1.56,1.77 -0.68,0.42 -1.45,0.63 -2.29,0.63 -1.21,0 -2.25,-0.41 -3.12,-1.21 -0.87,-0.81 -1.31,-2.15 -1.31,-4.03 z"
                 style="fill:#000000;fill-opacity:1;fill-rule:evenodd;stroke:none"
                 id="path402"
                 inkscape:connector-curvature="0" />
              <path
                 d="m 117.67,144.16 1.19,0.16 c 0.14,-0.66 0.37,-1.13 0.7,-1.41 0.32,-0.29 0.72,-0.44 1.19,-0.44 0.56,0 1.03,0.19 1.42,0.57 0.38,0.37 0.57,0.84 0.57,1.39 0,0.53 -0.17,0.97 -0.53,1.31 -0.36,0.34 -0.81,0.52 -1.36,0.52 -0.22,0 -0.5,-0.05 -0.84,-0.13 l 0.14,1.01 c 0.08,-0.01 0.14,-0.01 0.19,-0.01 0.5,0 0.96,0.12 1.36,0.38 0.41,0.26 0.61,0.65 0.61,1.18 0,0.43 -0.15,0.78 -0.44,1.05 -0.3,0.28 -0.68,0.42 -1.14,0.42 -0.46,0 -0.85,-0.14 -1.16,-0.42 -0.3,-0.28 -0.5,-0.71 -0.59,-1.27 l -1.19,0.21 c 0.15,0.77 0.48,1.37 0.99,1.79 0.52,0.42 1.16,0.64 1.92,0.64 0.53,0 1.01,-0.11 1.46,-0.33 0.44,-0.22 0.78,-0.52 1.02,-0.9 0.23,-0.38 0.35,-0.78 0.35,-1.21 0,-0.41 -0.11,-0.78 -0.34,-1.11 -0.22,-0.33 -0.55,-0.6 -0.99,-0.79 0.57,-0.13 1.01,-0.4 1.33,-0.8 0.31,-0.4 0.47,-0.91 0.47,-1.51 0,-0.82 -0.3,-1.52 -0.92,-2.09 -0.62,-0.57 -1.39,-0.85 -2.33,-0.85 -0.85,0 -1.56,0.24 -2.12,0.74 -0.56,0.49 -0.88,1.12 -0.96,1.9 z"
                 style="fill:#000000;fill-opacity:1;fill-rule:evenodd;stroke:none"
                 id="path404"
                 inkscape:connector-curvature="0" />
              <path
                 d="m 125.04,155.4 0,1.16 3.65,0 0,-1.16 -3.65,0 z m 10.86,-1.71 0,-1.1 -6.38,0 c -0.01,0.27 0.03,0.54 0.14,0.8 0.16,0.42 0.42,0.83 0.78,1.24 0.35,0.41 0.87,0.89 1.55,1.43 1.05,0.83 1.76,1.49 2.13,1.98 0.37,0.49 0.55,0.95 0.55,1.39 0,0.45 -0.17,0.84 -0.5,1.15 -0.34,0.32 -0.78,0.47 -1.32,0.47 -0.57,0 -1.03,-0.16 -1.37,-0.5 -0.34,-0.33 -0.51,-0.79 -0.52,-1.38 l -1.22,0.12 c 0.08,0.89 0.4,1.56 0.94,2.02 0.55,0.46 1.28,0.7 2.2,0.7 0.93,0 1.66,-0.25 2.2,-0.75 0.54,-0.5 0.81,-1.12 0.81,-1.86 0,-0.37 -0.08,-0.74 -0.24,-1.11 -0.15,-0.36 -0.42,-0.74 -0.78,-1.14 -0.37,-0.4 -0.98,-0.95 -1.83,-1.65 -0.71,-0.58 -1.17,-0.98 -1.37,-1.18 -0.21,-0.21 -0.37,-0.42 -0.51,-0.63 l 4.74,0 z"
                 style="fill:#000000;fill-opacity:1;fill-rule:evenodd;stroke:none"
                 id="path406"
                 inkscape:connector-curvature="0" />
              <path
                 d="m 97.103,131.95 0,11.41"
                 style="fill:none;stroke:#000000;stroke-width:0.95999998;stroke-linecap:round;stroke-linejoin:miter;stroke-miterlimit:10;stroke-dasharray:none;stroke-opacity:1"
                 id="path408"
                 inkscape:connector-curvature="0" />
              <path
                 d="m 71.952,109.54 0,-27.99"
                 style="fill:none;stroke:#000000;stroke-width:0.14;stroke-linecap:butt;stroke-linejoin:miter;stroke-miterlimit:10;stroke-dasharray:none;stroke-opacity:1"
                 id="path410"
                 inkscape:connector-curvature="0" />
              <path
                 d="m 69.047,108.63 6.01,2.29 -2.584,-29.311 -0.521,-0.239 -0.522,0.239 -2.383,27.021 z"
                 style="fill:#000000;fill-opacity:1;fill-rule:evenodd;stroke:none"
                 id="path412"
                 inkscape:connector-curvature="0" />
              <path
                 d="m 71.952,109.72 17.581,10.05"
                 style="fill:none;stroke:#000000;stroke-width:0.95999998;stroke-linecap:round;stroke-linejoin:miter;stroke-miterlimit:10;stroke-dasharray:none;stroke-opacity:1"
                 id="path414"
                 inkscape:connector-curvature="0" />
              <path
                 d="m 3.4906,66.746 0,12.51 1.705,0 0,-5.137 6.6974,0 0,5.137 1.705,0 0,-12.51 -1.705,0 0,5.896 -6.6974,0 0,-5.896 -1.705,0 z m 12.4244,6.093 c 0,2.075 0.575,3.701 1.723,4.876 1.149,1.174 2.631,1.762 4.447,1.762 1.19,0 2.263,-0.276 3.217,-0.828 0.955,-0.552 1.683,-1.321 2.184,-2.308 0.501,-0.987 0.752,-2.106 0.752,-3.357 0,-1.269 -0.264,-2.404 -0.791,-3.405 -0.527,-1.002 -1.274,-1.76 -2.241,-2.274 -0.967,-0.516 -2.01,-0.772 -3.129,-0.772 -1.213,0 -2.297,0.284 -3.252,0.853 -0.955,0.568 -1.679,1.345 -2.171,2.329 -0.492,0.984 -0.739,2.025 -0.739,3.124 z m 1.758,-0.026 c 0,-1.508 0.418,-2.696 1.253,-3.563 0.835,-0.868 1.882,-1.301 3.142,-1.301 1.283,0 2.339,0.438 3.168,1.314 0.829,0.876 1.244,2.119 1.244,3.729 0,1.018 -0.177,1.907 -0.532,2.666 -0.354,0.76 -0.873,1.349 -1.556,1.767 -0.682,0.418 -1.448,0.627 -2.298,0.627 -1.207,0 -2.245,-0.403 -3.115,-1.208 -0.871,-0.805 -1.306,-2.148 -1.306,-4.031 z"
                 style="fill:#000000;fill-opacity:1;fill-rule:evenodd;stroke:none"
                 id="path416"
                 inkscape:connector-curvature="0" />
              <path
                 d="m 30.021,68.775 1.236,3.804"
                 style="fill:none;stroke:#000000;stroke-width:0.95999998;stroke-linecap:round;stroke-linejoin:miter;stroke-miterlimit:10;stroke-dasharray:none;stroke-opacity:1"
                 id="path418"
                 inkscape:connector-curvature="0" />
              <path
                 d="m 33.087,67.779 1.236,3.804"
                 style="fill:none;stroke:#000000;stroke-width:0.95999998;stroke-linecap:round;stroke-linejoin:miter;stroke-miterlimit:10;stroke-dasharray:none;stroke-opacity:1"
                 id="path420"
                 inkscape:connector-curvature="0" />
              <path
                 d="m 36.153,66.782 1.236,3.804"
                 style="fill:none;stroke:#000000;stroke-width:0.95999998;stroke-linecap:round;stroke-linejoin:miter;stroke-miterlimit:10;stroke-dasharray:none;stroke-opacity:1"
                 id="path422"
                 inkscape:connector-curvature="0" />
              <path
                 d="m 39.219,65.786 1.236,3.804"
                 style="fill:none;stroke:#000000;stroke-width:0.95999998;stroke-linecap:round;stroke-linejoin:miter;stroke-miterlimit:10;stroke-dasharray:none;stroke-opacity:1"
                 id="path424"
                 inkscape:connector-curvature="0" />
              <path
                 d="m 42.285,64.79 1.236,3.804"
                 style="fill:none;stroke:#000000;stroke-width:0.95999998;stroke-linecap:round;stroke-linejoin:miter;stroke-miterlimit:10;stroke-dasharray:none;stroke-opacity:1"
                 id="path426"
                 inkscape:connector-curvature="0" />
              <path
                 d="m 45.352,63.794 1.236,3.804"
                 style="fill:none;stroke:#000000;stroke-width:0.95999998;stroke-linecap:round;stroke-linejoin:miter;stroke-miterlimit:10;stroke-dasharray:none;stroke-opacity:1"
                 id="path428"
                 inkscape:connector-curvature="0" />
              <path
                 d="m 79.994,8.7657 c 0,2.0753 0.574,3.7013 1.722,4.8763 1.149,1.174 2.631,1.762 4.447,1.762 1.19,0 2.263,-0.276 3.217,-0.828 0.956,-0.552 1.684,-1.321 2.184,-2.308 0.502,-0.987 0.752,-2.106 0.752,-3.3573 0,-1.2693 -0.264,-2.4041 -0.791,-3.4052 C 90.998,4.5039 90.251,3.7461 89.284,3.2314 88.317,2.7163 87.274,2.4597 86.155,2.4597 c -1.213,0 -2.297,0.2838 -3.252,0.8528 -0.955,0.5685 -1.679,1.345 -2.171,2.3295 -0.492,0.984 -0.738,2.0251 -0.738,3.1237 z m 1.757,-0.0256 c 0,-1.5082 0.418,-2.6959 1.253,-3.5631 0.835,-0.8677 1.882,-1.3013 3.142,-1.3008 1.283,-5e-4 2.339,0.4374 3.168,1.3136 0.83,0.8757 1.244,2.1189 1.244,3.7295 0,1.0175 -0.177,1.9067 -0.532,2.6657 -0.354,0.76 -0.873,1.349 -1.555,1.767 -0.683,0.418 -1.449,0.627 -2.298,0.627 -1.207,0 -2.246,-0.403 -3.116,-1.208 -0.871,-0.805 -1.306,-2.148 -1.306,-4.0309 z m 12.816,-6.067 0,12.5099 1.705,0 0,-5.137 6.698,0 0,5.137 1.7,0 0,-12.5099 -1.7,0 0,5.8963 -6.698,0 0,-5.8963 -1.705,0 z"
                 style="fill:#000000;fill-opacity:1;fill-rule:evenodd;stroke:none"
                 id="path430"
                 inkscape:connector-curvature="0" />
              <path
                 d="m 88.127,17.738 -4,0"
                 style="fill:none;stroke:#000000;stroke-width:0.95999998;stroke-linecap:round;stroke-linejoin:miter;stroke-miterlimit:10;stroke-dasharray:none;stroke-opacity:1"
                 id="path432"
                 inkscape:connector-curvature="0" />
              <path
                 d="m 88.127,20.539 -4,0"
                 style="fill:none;stroke:#000000;stroke-width:0.95999998;stroke-linecap:round;stroke-linejoin:miter;stroke-miterlimit:10;stroke-dasharray:none;stroke-opacity:1"
                 id="path434"
                 inkscape:connector-curvature="0" />
              <path
                 d="m 88.127,23.34 -4,0"
                 style="fill:none;stroke:#000000;stroke-width:0.95999998;stroke-linecap:round;stroke-linejoin:miter;stroke-miterlimit:10;stroke-dasharray:none;stroke-opacity:1"
                 id="path436"
                 inkscape:connector-curvature="0" />
              <path
                 d="m 88.127,26.141 -4,0"
                 style="fill:none;stroke:#000000;stroke-width:0.95999998;stroke-linecap:round;stroke-linejoin:miter;stroke-miterlimit:10;stroke-dasharray:none;stroke-opacity:1"
                 id="path438"
                 inkscape:connector-curvature="0" />
              <path
                 d="m 88.127,28.941 -4,0"
                 style="fill:none;stroke:#000000;stroke-width:0.95999998;stroke-linecap:round;stroke-linejoin:miter;stroke-miterlimit:10;stroke-dasharray:none;stroke-opacity:1"
                 id="path440"
                 inkscape:connector-curvature="0" />
              <path
                 d="m 88.127,31.742 -4,0"
                 style="fill:none;stroke:#000000;stroke-width:0.95999998;stroke-linecap:round;stroke-linejoin:miter;stroke-miterlimit:10;stroke-dasharray:none;stroke-opacity:1"
                 id="path442"
                 inkscape:connector-curvature="0" />
              <path
                 d="m 88.127,34.543 -4,0"
                 style="fill:none;stroke:#000000;stroke-width:0.95999998;stroke-linecap:round;stroke-linejoin:miter;stroke-miterlimit:10;stroke-dasharray:none;stroke-opacity:1"
                 id="path444"
                 inkscape:connector-curvature="0" />
              <path
                 d="m 22.55,8.0874 0,12.5096 1.705,0 0,-5.137 6.697,0 0,5.137 1.705,0 0,-12.5096 -1.705,0 0,5.8966 -6.697,0 0,-5.8966 -1.705,0 z M 34.975,14.18 c 0,2.076 0.574,3.701 1.722,4.876 1.149,1.175 2.631,1.762 4.448,1.763 1.189,-10e-4 2.262,-0.277 3.217,-0.828 0.955,-0.552 1.683,-1.322 2.184,-2.309 0.501,-0.987 0.751,-2.106 0.751,-3.357 0,-1.269 -0.263,-2.404 -0.791,-3.405 C 45.979,9.9183 45.232,9.1605 44.265,8.6458 43.298,8.1306 42.255,7.8741 41.136,7.8741 c -1.213,0 -2.297,0.2837 -3.252,0.8528 -0.955,0.5685 -1.678,1.3451 -2.171,2.3291 -0.492,0.984 -0.738,2.025 -0.738,3.124 z m 1.758,-0.026 c 0,-1.508 0.417,-2.695 1.252,-3.563 0.835,-0.8673 1.882,-1.3009 3.142,-1.3004 1.283,-5e-4 2.34,0.4373 3.168,1.3134 0.83,0.876 1.244,2.119 1.244,3.73 0,1.017 -0.177,1.906 -0.532,2.666 -0.354,0.759 -0.873,1.348 -1.555,1.766 -0.683,0.418 -1.449,0.627 -2.298,0.628 -1.207,-10e-4 -2.246,-0.403 -3.116,-1.208 -0.87,-0.806 -1.305,-2.149 -1.305,-4.032 z"
                 style="fill:#000000;fill-opacity:1;fill-rule:evenodd;stroke:none"
                 id="path446"
                 inkscape:connector-curvature="0" />
              <path
                 d="M 46.002,21.469 57.597,37.563"
                 style="fill:none;stroke:#000000;stroke-width:0.14;stroke-linecap:butt;stroke-linejoin:miter;stroke-miterlimit:10;stroke-dasharray:none;stroke-opacity:1"
                 id="path448"
                 inkscape:connector-curvature="0" />
              <path
                 d="m 48.249,19.526 -4.854,3.526 13.816,14.813 0.566,-0.122 0.29,-0.5 -9.818,-17.717 z"
                 style="fill:#000000;fill-opacity:1;fill-rule:evenodd;stroke:none"
                 id="path450"
                 inkscape:connector-curvature="0" />
              <path
                 d="m 114.3,37.743 -27.993,0"
                 style="fill:none;stroke:#000000;stroke-width:0.14;stroke-linecap:butt;stroke-linejoin:miter;stroke-miterlimit:10;stroke-dasharray:none;stroke-opacity:1"
                 id="path452"
                 inkscape:connector-curvature="0" />
              <path
                 d="m 113.38,40.646 2.31,-6.01 -29.563,2.607 0,0.5 0.708,0.563 26.545,2.34 z"
                 style="fill:#000000;fill-opacity:1;fill-rule:evenodd;stroke:none"
                 id="path454"
                 inkscape:connector-curvature="0" />
              <path
                 d="m 122.52,12.568 c 0,2.076 0.58,3.701 1.73,4.876 1.14,1.174 2.63,1.762 4.44,1.763 1.19,-0.001 2.26,-0.277 3.22,-0.829 0.95,-0.552 1.68,-1.321 2.18,-2.308 0.5,-0.987 0.75,-2.106 0.75,-3.357 0,-1.269 -0.26,-2.404 -0.79,-3.4052 -0.52,-1.0016 -1.27,-1.7594 -2.24,-2.2741 -0.96,-0.5151 -2.01,-0.7717 -3.13,-0.7717 -1.21,0 -2.29,0.2837 -3.25,0.8528 -0.95,0.5685 -1.68,1.345 -2.17,2.3295 -0.49,0.9837 -0.74,2.0247 -0.74,3.1237 z m 1.76,-0.026 c 0,-1.508 0.42,-2.6955 1.25,-3.5627 0.84,-0.8677 1.89,-1.3013 3.15,-1.3008 1.28,-5e-4 2.33,0.4373 3.16,1.3136 0.83,0.8757 1.25,2.1189 1.25,3.7299 0,1.017 -0.18,1.906 -0.53,2.666 -0.36,0.759 -0.88,1.348 -1.56,1.766 -0.68,0.418 -1.45,0.627 -2.3,0.628 -1.21,-0.001 -2.24,-0.404 -3.11,-1.208 -0.87,-0.806 -1.31,-2.149 -1.31,-4.032 z"
                 style="fill:#000000;fill-opacity:1;fill-rule:evenodd;stroke:none"
                 id="path456"
                 inkscape:connector-curvature="0" />
              <path
                 d="m 152.39,6.4754 0,12.5096 4.86,0 c 0.86,-10e-4 1.51,-0.041 1.96,-0.12 0.63,-0.103 1.16,-0.298 1.59,-0.585 0.43,-0.287 0.77,-0.69 1.04,-1.207 0.26,-0.518 0.39,-1.086 0.39,-1.706 0,-1.065 -0.35,-1.965 -1.05,-2.701 -0.7,-0.737 -1.96,-1.105 -3.78,-1.105 l -3.3,0 0,-5.0856 -1.71,0 z m 1.71,6.5616 3.33,0 c 1.1,0 1.88,0.199 2.34,0.597 0.47,0.398 0.7,0.958 0.7,1.682 0,0.522 -0.14,0.97 -0.41,1.343 -0.27,0.372 -0.63,0.619 -1.08,0.739 -0.28,0.073 -0.81,0.11 -1.59,0.111 l -3.29,0 0,-4.472 z m 9.78,-0.469 c 0,2.076 0.57,3.701 1.72,4.876 1.15,1.174 2.63,1.762 4.45,1.763 1.19,-0.001 2.26,-0.277 3.22,-0.829 0.95,-0.552 1.68,-1.321 2.18,-2.308 0.5,-0.987 0.75,-2.106 0.75,-3.357 0,-1.269 -0.26,-2.404 -0.79,-3.4052 -0.53,-1.0016 -1.27,-1.7594 -2.24,-2.2741 -0.97,-0.5151 -2.01,-0.7717 -3.13,-0.7717 -1.21,0 -2.3,0.2837 -3.25,0.8528 -0.96,0.5685 -1.68,1.345 -2.17,2.3295 -0.49,0.9837 -0.74,2.0247 -0.74,3.1237 z m 1.76,-0.026 c 0,-1.508 0.41,-2.6955 1.25,-3.5627 0.83,-0.8677 1.88,-1.3013 3.14,-1.3008 1.28,-5e-4 2.34,0.4373 3.17,1.3136 0.83,0.8757 1.24,2.1189 1.24,3.7299 0,1.017 -0.17,1.906 -0.53,2.666 -0.35,0.759 -0.87,1.348 -1.55,1.766 -0.69,0.418 -1.45,0.627 -2.3,0.628 -1.21,-0.001 -2.25,-0.404 -3.12,-1.208 -0.87,-0.806 -1.3,-2.149 -1.3,-4.032 z"
                 style="fill:#000000;fill-opacity:1;fill-rule:evenodd;stroke:none"
                 id="path458"
                 inkscape:connector-curvature="0" />
              <path
                 d="m 177.58,4.9072 1.18,0.1536 c 0.14,-0.6532 0.37,-1.1236 0.7,-1.4116 0.33,-0.288 0.73,-0.432 1.2,-0.4316 0.55,-4e-4 1.02,0.1872 1.41,0.5628 0.38,0.3752 0.58,0.8404 0.58,1.3955 0,0.5288 -0.18,0.9648 -0.54,1.3084 -0.35,0.3432 -0.81,0.5152 -1.36,0.5156 -0.22,-4e-4 -0.5,-0.0432 -0.83,-0.128 l 0.13,1.0112 c 0.08,-0.0088 0.14,-0.0132 0.19,-0.0128 0.51,-4e-4 0.96,0.1275 1.36,0.3835 0.41,0.256 0.61,0.6508 0.61,1.1844 0,0.422 -0.15,0.7718 -0.44,1.0488 -0.3,0.278 -0.68,0.416 -1.14,0.417 -0.46,-10e-4 -0.85,-0.141 -1.15,-0.423 -0.31,-0.282 -0.51,-0.704 -0.6,-1.2668 L 177.7,9.419 c 0.14,0.772 0.47,1.37 0.98,1.795 0.52,0.424 1.16,0.637 1.92,0.637 0.53,0 1.02,-0.11 1.46,-0.33 0.44,-0.22 0.78,-0.52 1.02,-0.899 0.23,-0.38 0.35,-0.783 0.35,-1.2094 0,-0.4056 -0.11,-0.7748 -0.34,-1.1076 -0.22,-0.3327 -0.55,-0.5971 -0.99,-0.7931 0.57,-0.1284 1.01,-0.394 1.33,-0.7972 0.32,-0.4032 0.48,-0.9076 0.48,-1.5132 0,-0.8195 -0.31,-1.5139 -0.93,-2.0835 -0.61,-0.5696 -1.39,-0.854 -2.33,-0.854 -0.85,0 -1.55,0.2448 -2.11,0.7356 -0.56,0.4904 -0.88,1.1264 -0.96,1.9076 z"
                 style="fill:#000000;fill-opacity:1;fill-rule:evenodd;stroke:none"
                 id="path460"
                 inkscape:connector-curvature="0" />
              <path
                 d="m 184.95,16.146 0,1.159 3.64,0 0,-1.159 -3.64,0 z m 10.86,-1.708 0,-1.108 -6.39,0 c -0.01,0.277 0.04,0.544 0.14,0.8 0.16,0.422 0.42,0.838 0.78,1.248 0.36,0.41 0.87,0.883 1.55,1.421 1.05,0.836 1.76,1.498 2.13,1.987 0.37,0.488 0.55,0.95 0.55,1.386 0,0.456 -0.16,0.841 -0.5,1.155 -0.34,0.313 -0.77,0.47 -1.32,0.47 -0.57,0 -1.02,-0.166 -1.37,-0.499 -0.34,-0.333 -0.51,-0.794 -0.52,-1.382 l -1.22,0.121 c 0.09,0.883 0.4,1.556 0.95,2.019 0.54,0.463 1.27,0.695 2.19,0.695 0.93,0 1.66,-0.25 2.2,-0.749 0.54,-0.499 0.81,-1.118 0.81,-1.856 0,-0.376 -0.07,-0.745 -0.23,-1.107 -0.16,-0.363 -0.42,-0.745 -0.79,-1.146 -0.37,-0.401 -0.98,-0.951 -1.83,-1.651 -0.71,-0.58 -1.17,-0.974 -1.37,-1.181 -0.2,-0.207 -0.37,-0.415 -0.5,-0.623 l 4.74,0 z"
                 style="fill:#000000;fill-opacity:1;fill-rule:evenodd;stroke:none"
                 id="path462"
                 inkscape:connector-curvature="0" />
              <path
                 d="m 136.74,13.196 13.71,0"
                 style="fill:none;stroke:#000000;stroke-width:0.95999998;stroke-linecap:round;stroke-linejoin:miter;stroke-miterlimit:10;stroke-dasharray:none;stroke-opacity:1"
                 id="path464"
                 inkscape:connector-curvature="0" />
              <path
                 d="M 114.48,37.743 124.67,20.101"
                 style="fill:none;stroke:#000000;stroke-width:0.95999998;stroke-linecap:round;stroke-linejoin:miter;stroke-miterlimit:10;stroke-dasharray:none;stroke-opacity:1"
                 id="path466"
                 inkscape:connector-curvature="0" />
            </g>
          </g>
        </g>
      </g>
    </g>
  </g>
</svg>
