<?xml version="1.0" encoding="UTF-8" standalone="no"?>
<!-- Created with Inkscape (http://www.inkscape.org/) -->

<svg
   xmlns:dc="http://purl.org/dc/elements/1.1/"
   xmlns:cc="http://creativecommons.org/ns#"
   xmlns:rdf="http://www.w3.org/1999/02/22-rdf-syntax-ns#"
   xmlns:svg="http://www.w3.org/2000/svg"
   xmlns="http://www.w3.org/2000/svg"
   xmlns:sodipodi="http://sodipodi.sourceforge.net/DTD/sodipodi-0.dtd"
   xmlns:inkscape="http://www.inkscape.org/namespaces/inkscape"
   width="62.209568mm"
   height="78.20443mm"
   viewBox="0 0 220.4276 277.10231"
   id="svg3856"
   version="1.1"
   inkscape:version="0.91 r13725"
   sodipodi:docname="drawing.svg">
  <defs
     id="defs3858">
    <clipPath
       clipPathUnits="userSpaceOnUse"
       id="clipPath78">
      <path
         style="clip-rule:evenodd"
         d="M 1.457e-6,2.4414e-4 960,2.4414e-4 960,540.00024 1.457e-6,540.00024 l 0,-539.99999586 z"
         id="path80"
         inkscape:connector-curvature="0" />
    </clipPath>
    <clipPath
       clipPathUnits="userSpaceOnUse"
       id="clipPath88">
      <path
         d="m 0,0 142.33,0 0,147.12 L 0,147.12 0,0 Z"
         id="path90"
         inkscape:connector-curvature="0" />
    </clipPath>
    <clipPath
       clipPathUnits="userSpaceOnUse"
       id="clipPath172">
      <path
         style="clip-rule:evenodd"
         d="M 3.34e-6,1.8311e-4 960,1.8311e-4 960,540.00018 3.34e-6,540.00018 l 0,-539.99999689 z"
         id="path174"
         inkscape:connector-curvature="0" />
    </clipPath>
    <clipPath
       clipPathUnits="userSpaceOnUse"
       id="clipPath182">
      <path
         d="m 0,0 142.33,0 0,180.95 L 0,180.95 0,0 Z"
         id="path184"
         inkscape:connector-curvature="0" />
    </clipPath>
    <clipPath
       clipPathUnits="userSpaceOnUse"
       id="clipPath274">
      <path
         style="clip-rule:evenodd"
         d="m 1.1476e-5,2.4414e-4 959.999998524,0 0,539.99999586 -959.999998524,0 0,-539.99999586 z"
         id="path276"
         inkscape:connector-curvature="0" />
    </clipPath>
    <clipPath
       clipPathUnits="userSpaceOnUse"
       id="clipPath284">
      <path
         d="m 0,0 150.6,0 0,168 L 0,168 0,0 Z"
         id="path286"
         inkscape:connector-curvature="0" />
    </clipPath>
    <clipPath
       clipPathUnits="userSpaceOnUse"
       id="clipPath374">
      <path
         style="clip-rule:evenodd"
         d="m 9.872e-6,2.4414e-4 960.000000128,0 0,539.99999586 -960.000000128,0 0,-539.99999586 z"
         id="path376"
         inkscape:connector-curvature="0" />
    </clipPath>
    <clipPath
       clipPathUnits="userSpaceOnUse"
       id="clipPath384">
      <path
         d="m 0,0 198.59,0 0,168.11 L 0,168.11 0,0 Z"
         id="path386"
         inkscape:connector-curvature="0" />
    </clipPath>
    <clipPath
       clipPathUnits="userSpaceOnUse"
       id="clipPath364">
      <path
         style="clip-rule:evenodd"
         d="M -1.601e-6,540 960,540 960,1.2207e-4 -5.3307e-5,6.1035e-5"
         id="path366"
         inkscape:connector-curvature="0" />
    </clipPath>
    <clipPath
       clipPathUnits="userSpaceOnUse"
       id="clipPath518">
      <path
         style="clip-rule:evenodd"
         d="m -1.2552e-5,3.0518e-4 960.000002552,0 0,540.00000482 -960.000002552,0 0,-540.00000482 z"
         id="path520"
         inkscape:connector-curvature="0" />
    </clipPath>
    <clipPath
       clipPathUnits="userSpaceOnUse"
       id="clipPath528">
      <path
         d="m 0,0 105.72,0 0,121.93 L 0,121.93 0,0 Z"
         id="path530"
         inkscape:connector-curvature="0" />
    </clipPath>
    <clipPath
       clipPathUnits="userSpaceOnUse"
       id="clipPath518-3">
      <path
         style="clip-rule:evenodd"
         d="m -1.2552e-5,3.0518e-4 960.000002552,0 0,540.00000482 -960.000002552,0 0,-540.00000482 z"
         id="path520-7"
         inkscape:connector-curvature="0" />
    </clipPath>
    <clipPath
       clipPathUnits="userSpaceOnUse"
       id="clipPath528-3">
      <path
         d="m 0,0 105.72,0 0,121.93 L 0,121.93 0,0 Z"
         id="path530-0"
         inkscape:connector-curvature="0" />
    </clipPath>
    <clipPath
       clipPathUnits="userSpaceOnUse"
       id="clipPath518-32">
      <path
         style="clip-rule:evenodd"
         d="m -1.2552e-5,3.0518e-4 960.000002552,0 0,540.00000482 -960.000002552,0 0,-540.00000482 z"
         id="path520-0"
         inkscape:connector-curvature="0" />
    </clipPath>
    <clipPath
       clipPathUnits="userSpaceOnUse"
       id="clipPath528-8">
      <path
         d="m 0,0 105.72,0 0,121.93 L 0,121.93 0,0 Z"
         id="path530-5"
         inkscape:connector-curvature="0" />
    </clipPath>
  </defs>
  <sodipodi:namedview
     id="base"
     pagecolor="#ffffff"
     bordercolor="#666666"
     borderopacity="1.0"
     inkscape:pageopacity="0.0"
     inkscape:pageshadow="2"
     inkscape:zoom="0.35"
     inkscape:cx="-799.03715"
     inkscape:cy="424.82994"
     inkscape:document-units="px"
     inkscape:current-layer="layer1"
     showgrid="false"
     inkscape:snap-object-midpoints="false"
     inkscape:window-width="1280"
     inkscape:window-height="657"
     inkscape:window-x="-8"
     inkscape:window-y="-8"
     inkscape:window-maximized="1"
     fit-margin-top="0"
     fit-margin-left="0"
     fit-margin-right="0"
     fit-margin-bottom="0" />
  <metadata
     id="metadata3861">
    <rdf:RDF>
      <cc:Work
         rdf:about="">
        <dc:format>image/svg+xml</dc:format>
        <dc:type
           rdf:resource="http://purl.org/dc/dcmitype/StillImage" />
        <dc:title></dc:title>
      </cc:Work>
    </rdf:RDF>
  </metadata>
  <g
     inkscape:label="Layer 1"
     inkscape:groupmode="layer"
     id="layer1"
     transform="translate(-1174.0372,-680.08985)">
    <path
       d="m 1264.9212,957.19216 82.262,0 0,-82.26216 -82.262,0 0,82.26216 z"
       style="fill:#ffbdbd;fill-opacity:1;fill-rule:evenodd;stroke:none"
       id="path512"
       inkscape:connector-curvature="0" />
    <g
       id="g514"
       transform="matrix(2.4837598,0,0,-2.4837598,-619.65638,1539.584)">
      <g
         id="g516"
         clip-path="url(#clipPath518-32)">
        <g
           id="g522"
           transform="matrix(1.31,0,0,1.5117,719.04,242.64)">
          <g
             id="g524"
             transform="scale(0.68105,0.5905)">
            <g
               id="g526"
               clip-path="url(#clipPath528-8)">
              <path
                 d="m 43.871,81.108 c 0,2.075 0.574,3.701 1.722,4.876 1.149,1.174 2.631,1.762 4.448,1.762 1.19,0 2.262,-0.276 3.217,-0.828 0.955,-0.552 1.683,-1.322 2.184,-2.308 0.501,-0.987 0.751,-2.106 0.751,-3.357 0,-1.27 -0.263,-2.405 -0.791,-3.406 -0.527,-1.001 -1.274,-1.759 -2.241,-2.274 -0.967,-0.515 -2.01,-0.771 -3.129,-0.771 -1.213,0 -2.297,0.283 -3.252,0.852 -0.955,0.569 -1.678,1.345 -2.171,2.33 -0.492,0.984 -0.738,2.025 -0.738,3.124 z m 1.758,-0.026 c 0,-1.508 0.417,-2.696 1.252,-3.563 0.836,-0.868 1.882,-1.301 3.142,-1.301 1.283,0 2.34,0.437 3.169,1.314 0.829,0.875 1.243,2.119 1.243,3.729 0,1.018 -0.177,1.907 -0.531,2.666 -0.355,0.76 -0.873,1.348 -1.556,1.767 -0.683,0.418 -1.449,0.627 -2.298,0.627 -1.207,0 -2.245,-0.403 -3.116,-1.208 -0.87,-0.805 -1.305,-2.148 -1.305,-4.031 z"
                 style="fill:#000000;fill-opacity:1;fill-rule:evenodd;stroke:none"
                 id="path532"
                 inkscape:connector-curvature="0" />
              <path
                 d="m 59.564,99.567 0,12.513 4.861,0 c 0.855,0 1.509,-0.04 1.96,-0.12 0.633,-0.11 1.163,-0.3 1.591,-0.59 0.427,-0.29 0.772,-0.69 1.033,-1.21 0.26,-0.51 0.391,-1.08 0.391,-1.7 0,-1.07 -0.349,-1.97 -1.046,-2.7 -0.698,-0.74 -1.957,-1.11 -3.78,-1.11 l -3.304,0 0,-5.083 -1.706,0 z m 1.706,6.563 3.33,0 c 1.102,0 1.885,0.2 2.347,0.6 0.463,0.39 0.695,0.95 0.695,1.68 0,0.52 -0.136,0.97 -0.409,1.34 -0.272,0.37 -0.631,0.62 -1.077,0.74 -0.287,0.07 -0.817,0.11 -1.59,0.11 l -3.296,0 0,-4.47 z m 9.782,-0.47 c 0,2.08 0.574,3.7 1.722,4.88 1.149,1.17 2.631,1.76 4.448,1.76 1.19,0 2.262,-0.28 3.217,-0.83 0.955,-0.55 1.683,-1.32 2.184,-2.31 0.501,-0.99 0.751,-2.1 0.751,-3.36 0,-1.26 -0.263,-2.4 -0.791,-3.4 -0.527,-1 -1.274,-1.76 -2.241,-2.27 -0.967,-0.52 -2.01,-0.777 -3.129,-0.777 -1.213,0 -2.297,0.284 -3.252,0.857 -0.955,0.56 -1.678,1.34 -2.171,2.33 -0.492,0.98 -0.738,2.02 -0.738,3.12 z m 1.758,-0.03 c 0,-1.5 0.417,-2.69 1.252,-3.56 0.836,-0.87 1.882,-1.3 3.142,-1.3 1.283,0 2.34,0.44 3.169,1.31 0.829,0.88 1.243,2.12 1.243,3.73 0,1.02 -0.177,1.91 -0.531,2.67 -0.355,0.76 -0.873,1.35 -1.556,1.77 -0.683,0.41 -1.449,0.62 -2.298,0.62 -1.207,0 -2.245,-0.4 -3.116,-1.2 -0.87,-0.81 -1.305,-2.15 -1.305,-4.04 z"
                 style="fill:#000000;fill-opacity:1;fill-rule:evenodd;stroke:none"
                 id="path534"
                 inkscape:connector-curvature="0" />
              <path
                 d="m 84.75,97.999 1.187,0.153 c 0.136,-0.653 0.368,-1.123 0.695,-1.411 0.328,-0.288 0.727,-0.432 1.197,-0.432 0.558,0 1.029,0.187 1.414,0.563 0.384,0.375 0.576,0.84 0.576,1.395 0,0.529 -0.178,0.965 -0.534,1.309 -0.356,0.343 -0.808,0.514 -1.358,0.514 -0.224,0 -0.502,-0.04 -0.837,-0.127 l 0.132,1.007 c 0.079,0 0.143,-0.01 0.191,-0.01 0.506,0 0.961,0.13 1.365,0.39 0.404,0.25 0.606,0.65 0.606,1.18 0,0.42 -0.147,0.77 -0.441,1.05 -0.295,0.28 -0.675,0.41 -1.141,0.42 -0.461,-0.01 -0.845,-0.15 -1.153,-0.43 -0.308,-0.28 -0.506,-0.7 -0.594,-1.26 l -1.186,0.2 c 0.145,0.77 0.474,1.37 0.989,1.8 0.514,0.42 1.153,0.63 1.918,0.63 0.527,0 1.013,-0.11 1.457,-0.33 0.444,-0.22 0.783,-0.52 1.018,-0.9 0.235,-0.38 0.353,-0.78 0.353,-1.21 0,-0.4 -0.112,-0.77 -0.336,-1.1 -0.224,-0.34 -0.556,-0.6 -0.996,-0.8 0.572,-0.13 1.016,-0.39 1.332,-0.794 0.316,-0.403 0.474,-0.907 0.474,-1.513 0,-0.82 -0.307,-1.514 -0.922,-2.084 -0.616,-0.569 -1.393,-0.854 -2.334,-0.854 -0.848,0 -1.552,0.245 -2.113,0.736 -0.56,0.49 -0.88,1.126 -0.959,1.908 z"
                 style="fill:#000000;fill-opacity:1;fill-rule:evenodd;stroke:none"
                 id="path536"
                 inkscape:connector-curvature="0" />
              <path
                 d="m 92.12,109.24 0,1.16 3.645,0 0,-1.16 -3.645,0 z m 10.86,-1.71 0,-1.11 -6.387,0 c -0.009,0.28 0.037,0.55 0.138,0.8 0.163,0.42 0.423,0.84 0.781,1.25 0.358,0.41 0.876,0.88 1.552,1.42 1.046,0.84 1.756,1.5 2.126,1.99 0.37,0.49 0.56,0.95 0.56,1.38 0,0.46 -0.17,0.84 -0.51,1.16 -0.33,0.31 -0.77,0.47 -1.312,0.47 -0.571,0 -1.028,-0.17 -1.371,-0.5 -0.343,-0.33 -0.516,-0.79 -0.521,-1.38 l -1.219,0.12 c 0.084,0.88 0.398,1.55 0.943,2.02 0.545,0.46 1.276,0.69 2.194,0.69 0.926,0 1.666,-0.25 2.206,-0.75 0.54,-0.5 0.81,-1.11 0.81,-1.85 0,-0.38 -0.08,-0.75 -0.24,-1.11 -0.16,-0.36 -0.42,-0.74 -0.79,-1.15 -0.36,-0.4 -0.97,-0.95 -1.83,-1.65 -0.709,-0.58 -1.166,-0.97 -1.368,-1.18 -0.202,-0.2 -0.37,-0.41 -0.502,-0.62 l 4.74,0 z"
                 style="fill:#000000;fill-opacity:1;fill-rule:evenodd;stroke:none"
                 id="path538"
                 inkscape:connector-curvature="0" />
              <path
                 d="m 54.001,88.659 4.968,8.604"
                 style="fill:none;stroke:#000000;stroke-width:0.95999998;stroke-linecap:round;stroke-linejoin:miter;stroke-miterlimit:10;stroke-dasharray:none;stroke-opacity:1"
                 id="path540"
                 inkscape:connector-curvature="0" />
              <path
                 d="M 50.42,32.152 64.595,56.704"
                 style="fill:none;stroke:#000000;stroke-width:0.95999998;stroke-linecap:round;stroke-linejoin:miter;stroke-miterlimit:10;stroke-dasharray:none;stroke-opacity:1"
                 id="path542"
                 inkscape:connector-curvature="0" />
              <path
                 d="M 64.595,56.704 54.688,73.7"
                 style="fill:none;stroke:#000000;stroke-width:0.95999998;stroke-linecap:round;stroke-linejoin:miter;stroke-miterlimit:10;stroke-dasharray:none;stroke-opacity:1"
                 id="path544"
                 inkscape:connector-curvature="0" />
              <path
                 d="M 50.42,32.152 64.595,7.6005"
                 style="fill:none;stroke:#000000;stroke-width:0.95999998;stroke-linecap:round;stroke-linejoin:miter;stroke-miterlimit:10;stroke-dasharray:none;stroke-opacity:1"
                 id="path546"
                 inkscape:connector-curvature="0" />
              <path
                 d="m 3.5068,25.432 0,12.51 1.705,0 0,-5.137 6.6972,0 0,5.137 1.705,0 0,-12.51 -1.705,0 0,5.896 -6.6972,0 0,-5.896 -1.705,0 z m 12.4242,6.093 c 0,2.075 0.575,3.701 1.723,4.876 1.149,1.174 2.631,1.762 4.447,1.762 1.19,0 2.263,-0.276 3.217,-0.828 0.956,-0.552 1.683,-1.321 2.184,-2.308 0.502,-0.987 0.752,-2.106 0.752,-3.357 0,-1.27 -0.264,-2.404 -0.791,-3.406 -0.527,-1.001 -1.274,-1.759 -2.241,-2.274 -0.967,-0.515 -2.01,-0.771 -3.129,-0.771 -1.213,0 -2.297,0.283 -3.252,0.852 -0.955,0.569 -1.679,1.346 -2.171,2.33 -0.492,0.984 -0.739,2.025 -0.739,3.124 z m 1.758,-0.026 c 0,-1.508 0.418,-2.696 1.253,-3.563 0.835,-0.868 1.882,-1.301 3.142,-1.301 1.283,0 2.339,0.438 3.168,1.314 0.83,0.875 1.244,2.119 1.244,3.729 0,1.018 -0.177,1.907 -0.532,2.666 -0.354,0.76 -0.873,1.349 -1.555,1.767 -0.683,0.418 -1.449,0.627 -2.299,0.627 -1.206,0 -2.245,-0.403 -3.115,-1.208 -0.871,-0.805 -1.306,-2.148 -1.306,-4.031 z"
                 style="fill:#000000;fill-opacity:1;fill-rule:evenodd;stroke:none"
                 id="path548"
                 inkscape:connector-curvature="0" />
              <path
                 d="m 50.42,32.152 -20.191,0"
                 style="fill:none;stroke:#000000;stroke-width:0.95999998;stroke-linecap:round;stroke-linejoin:miter;stroke-miterlimit:10;stroke-dasharray:none;stroke-opacity:1"
                 id="path550"
                 inkscape:connector-curvature="0" />
              <path
                 d="m 86.812,8.6739 c 0,2.0761 0.574,3.7011 1.722,4.8761 1.149,1.174 2.631,1.762 4.447,1.763 1.19,-0.001 2.263,-0.277 3.217,-0.829 0.956,-0.552 1.684,-1.321 2.184,-2.308 0.502,-0.987 0.752,-2.106 0.752,-3.3571 0,-1.2693 -0.264,-2.4042 -0.791,-3.4052 C 97.816,4.4121 97.069,3.6543 96.102,3.1396 95.135,2.6244 94.092,2.3679 92.973,2.3679 c -1.213,0 -2.297,0.2837 -3.252,0.8528 -0.955,0.5685 -1.679,1.345 -2.171,2.3295 -0.492,0.984 -0.738,2.025 -0.738,3.1237 z m 1.757,-0.0256 c 0,-1.5083 0.418,-2.696 1.253,-3.5631 0.835,-0.8677 1.882,-1.3013 3.142,-1.3008 1.283,-5e-4 2.34,0.4373 3.168,1.3136 0.83,0.8757 1.244,2.1189 1.244,3.7294 0,1.0176 -0.177,1.9066 -0.532,2.6666 -0.354,0.759 -0.873,1.348 -1.555,1.766 -0.683,0.418 -1.449,0.627 -2.298,0.628 -1.207,-10e-4 -2.246,-0.404 -3.116,-1.208 -0.871,-0.806 -1.306,-2.149 -1.306,-4.0317 z"
                 style="fill:#000000;fill-opacity:1;fill-rule:evenodd;stroke:none"
                 id="path552"
                 inkscape:connector-curvature="0" />
              <path
                 d="m 64.595,7.6005 20.31,0"
                 style="fill:none;stroke:#000000;stroke-width:0.95999998;stroke-linecap:round;stroke-linejoin:miter;stroke-miterlimit:10;stroke-dasharray:none;stroke-opacity:1"
                 id="path554"
                 inkscape:connector-curvature="0" />
              <path
                 d="m 66.559,11.003 18.346,0"
                 style="fill:none;stroke:#000000;stroke-width:0.95999998;stroke-linecap:round;stroke-linejoin:miter;stroke-miterlimit:10;stroke-dasharray:none;stroke-opacity:1"
                 id="path556"
                 inkscape:connector-curvature="0" />
            </g>
          </g>
        </g>
      </g>
    </g>
  </g>
</svg>
